<?xml version="1.0" encoding="UTF-8"?>
<svg width="512" height="512" viewBox="0 0 512 512" fill="none" xmlns="http://www.w3.org/2000/svg">
  <rect width="512" height="512" rx="100" fill="#0EA5E9"/>
  <path d="M128 160C128 142.327 142.327 128 160 128H256C273.673 128 288 142.327 288 160V256C288 273.673 273.673 288 256 288H160C142.327 288 128 273.673 128 256V160Z" fill="white"/>
  <path d="M224 224C224 206.327 238.327 192 256 192H352C369.673 192 384 206.327 384 224V320C384 337.673 369.673 352 352 352H256C238.327 352 224 337.673 224 320V224Z" fill="white" fill-opacity="0.8"/>
  <path d="M160 352C160 343.163 167.163 336 176 336H336C344.837 336 352 343.163 352 352V368C352 376.837 344.837 384 336 384H176C167.163 384 160 376.837 160 368V352Z" fill="white"/>
</svg>
